<mxfile host="app.diagrams.net" modified="2022-02-22T00:25:02.714Z" agent="5.0 (Windows NT 10.0; Win64; x64) AppleWebKit/537.36 (KHTML, like Gecko) Chrome/98.0.4758.102 Safari/537.36" etag="9tah0uqT4oRvXhNmDxgG" version="16.6.2" type="github">
  <diagram id="DPIqhVDyf0il2X2MRdax" name="Page-1">
    <mxGraphModel dx="718" dy="383" grid="1" gridSize="10" guides="1" tooltips="1" connect="1" arrows="1" fold="1" page="1" pageScale="1" pageWidth="850" pageHeight="1100" math="0" shadow="0">
      <root>
        <mxCell id="0" />
        <mxCell id="1" parent="0" />
        <mxCell id="jki9zwqW6rv8HR_Bi_is-9" style="edgeStyle=none;rounded=0;orthogonalLoop=1;jettySize=auto;html=1;entryX=0.5;entryY=0;entryDx=0;entryDy=0;fontSize=10;endArrow=none;endFill=0;" edge="1" parent="1" source="jki9zwqW6rv8HR_Bi_is-1" target="jki9zwqW6rv8HR_Bi_is-8">
          <mxGeometry relative="1" as="geometry" />
        </mxCell>
        <mxCell id="jki9zwqW6rv8HR_Bi_is-1" value="Hospital" style="rounded=0;whiteSpace=wrap;html=1;" vertex="1" parent="1">
          <mxGeometry x="160" y="60" width="100" height="50" as="geometry" />
        </mxCell>
        <mxCell id="jki9zwqW6rv8HR_Bi_is-6" style="rounded=0;orthogonalLoop=1;jettySize=auto;html=1;entryX=0;entryY=0.5;entryDx=0;entryDy=0;fontSize=10;endArrow=none;endFill=0;" edge="1" parent="1" source="jki9zwqW6rv8HR_Bi_is-3" target="jki9zwqW6rv8HR_Bi_is-1">
          <mxGeometry relative="1" as="geometry" />
        </mxCell>
        <mxCell id="jki9zwqW6rv8HR_Bi_is-3" value="&lt;font style=&quot;font-size: 10px&quot;&gt;nome&lt;/font&gt;" style="ellipse;whiteSpace=wrap;html=1;" vertex="1" parent="1">
          <mxGeometry x="70" y="70" width="60" height="30" as="geometry" />
        </mxCell>
        <mxCell id="jki9zwqW6rv8HR_Bi_is-7" style="edgeStyle=none;rounded=0;orthogonalLoop=1;jettySize=auto;html=1;entryX=0;entryY=0.25;entryDx=0;entryDy=0;fontSize=10;endArrow=none;endFill=0;" edge="1" parent="1" source="jki9zwqW6rv8HR_Bi_is-4" target="jki9zwqW6rv8HR_Bi_is-1">
          <mxGeometry relative="1" as="geometry" />
        </mxCell>
        <mxCell id="jki9zwqW6rv8HR_Bi_is-4" value="&lt;u&gt;&lt;font style=&quot;font-size: 10px&quot;&gt;cod_hospital&lt;/font&gt;&lt;/u&gt;" style="ellipse;whiteSpace=wrap;html=1;" vertex="1" parent="1">
          <mxGeometry x="70" y="30" width="60" height="30" as="geometry" />
        </mxCell>
        <mxCell id="jki9zwqW6rv8HR_Bi_is-16" style="edgeStyle=none;rounded=0;orthogonalLoop=1;jettySize=auto;html=1;fontSize=10;endArrow=none;endFill=0;" edge="1" parent="1" source="jki9zwqW6rv8HR_Bi_is-8" target="jki9zwqW6rv8HR_Bi_is-10">
          <mxGeometry relative="1" as="geometry" />
        </mxCell>
        <mxCell id="jki9zwqW6rv8HR_Bi_is-8" value="Possui" style="rhombus;whiteSpace=wrap;html=1;fontSize=10;" vertex="1" parent="1">
          <mxGeometry x="185" y="150" width="50" height="50" as="geometry" />
        </mxCell>
        <mxCell id="jki9zwqW6rv8HR_Bi_is-21" style="edgeStyle=none;rounded=0;orthogonalLoop=1;jettySize=auto;html=1;fontSize=10;endArrow=none;endFill=0;" edge="1" parent="1" source="jki9zwqW6rv8HR_Bi_is-10" target="jki9zwqW6rv8HR_Bi_is-20">
          <mxGeometry relative="1" as="geometry" />
        </mxCell>
        <mxCell id="jki9zwqW6rv8HR_Bi_is-10" value="Leito" style="rounded=0;whiteSpace=wrap;html=1;" vertex="1" parent="1">
          <mxGeometry x="160" y="240" width="100" height="50" as="geometry" />
        </mxCell>
        <mxCell id="jki9zwqW6rv8HR_Bi_is-11" style="rounded=0;orthogonalLoop=1;jettySize=auto;html=1;entryX=0;entryY=0.75;entryDx=0;entryDy=0;fontSize=10;endArrow=none;endFill=0;" edge="1" parent="1" source="jki9zwqW6rv8HR_Bi_is-12">
          <mxGeometry relative="1" as="geometry">
            <mxPoint x="160" y="277.50000000000006" as="targetPoint" />
          </mxGeometry>
        </mxCell>
        <mxCell id="jki9zwqW6rv8HR_Bi_is-12" value="&lt;font style=&quot;font-size: 10px&quot;&gt;tipo&lt;/font&gt;" style="ellipse;whiteSpace=wrap;html=1;" vertex="1" parent="1">
          <mxGeometry x="70" y="280" width="60" height="30" as="geometry" />
        </mxCell>
        <mxCell id="jki9zwqW6rv8HR_Bi_is-13" style="edgeStyle=none;rounded=0;orthogonalLoop=1;jettySize=auto;html=1;entryX=0;entryY=0.25;entryDx=0;entryDy=0;fontSize=10;endArrow=none;endFill=0;" edge="1" parent="1" source="jki9zwqW6rv8HR_Bi_is-14">
          <mxGeometry relative="1" as="geometry">
            <mxPoint x="160" y="252.50000000000006" as="targetPoint" />
          </mxGeometry>
        </mxCell>
        <mxCell id="jki9zwqW6rv8HR_Bi_is-14" value="&lt;u&gt;&lt;font style=&quot;font-size: 10px&quot;&gt;cod_leito&lt;/font&gt;&lt;/u&gt;" style="ellipse;whiteSpace=wrap;html=1;" vertex="1" parent="1">
          <mxGeometry x="70" y="230" width="60" height="30" as="geometry" />
        </mxCell>
        <mxCell id="jki9zwqW6rv8HR_Bi_is-19" style="edgeStyle=none;rounded=0;orthogonalLoop=1;jettySize=auto;html=1;entryX=0;entryY=0.75;entryDx=0;entryDy=0;fontSize=10;endArrow=none;endFill=0;" edge="1" parent="1" source="jki9zwqW6rv8HR_Bi_is-18" target="jki9zwqW6rv8HR_Bi_is-1">
          <mxGeometry relative="1" as="geometry" />
        </mxCell>
        <mxCell id="jki9zwqW6rv8HR_Bi_is-18" value="&lt;font style=&quot;font-size: 10px&quot;&gt;qtd_leitos&lt;/font&gt;" style="ellipse;whiteSpace=wrap;html=1;" vertex="1" parent="1">
          <mxGeometry x="70" y="110" width="60" height="30" as="geometry" />
        </mxCell>
        <mxCell id="jki9zwqW6rv8HR_Bi_is-24" style="edgeStyle=none;rounded=0;orthogonalLoop=1;jettySize=auto;html=1;entryX=0;entryY=0.5;entryDx=0;entryDy=0;fontSize=10;endArrow=none;endFill=0;" edge="1" parent="1" source="jki9zwqW6rv8HR_Bi_is-20" target="jki9zwqW6rv8HR_Bi_is-23">
          <mxGeometry relative="1" as="geometry" />
        </mxCell>
        <mxCell id="jki9zwqW6rv8HR_Bi_is-20" value="ocupa" style="rhombus;whiteSpace=wrap;html=1;fontSize=10;" vertex="1" parent="1">
          <mxGeometry x="185" y="330" width="50" height="50" as="geometry" />
        </mxCell>
        <mxCell id="jki9zwqW6rv8HR_Bi_is-23" value="Paciente" style="rounded=0;whiteSpace=wrap;html=1;" vertex="1" parent="1">
          <mxGeometry x="340" y="330" width="100" height="50" as="geometry" />
        </mxCell>
        <mxCell id="jki9zwqW6rv8HR_Bi_is-25" value="&lt;font style=&quot;font-size: 10px&quot;&gt;&lt;u&gt;CPF&lt;/u&gt;&lt;/font&gt;" style="ellipse;whiteSpace=wrap;html=1;" vertex="1" parent="1">
          <mxGeometry x="210" y="420" width="50" height="20" as="geometry" />
        </mxCell>
        <mxCell id="jki9zwqW6rv8HR_Bi_is-27" value="&lt;span style=&quot;font-size: 10px&quot;&gt;&lt;u&gt;numero_cartao_sus&lt;/u&gt;&lt;/span&gt;" style="ellipse;whiteSpace=wrap;html=1;" vertex="1" parent="1">
          <mxGeometry x="270" y="450" width="110" height="30" as="geometry" />
        </mxCell>
        <mxCell id="jki9zwqW6rv8HR_Bi_is-28" value="&lt;font style=&quot;font-size: 10px&quot;&gt;tipo&lt;/font&gt;" style="ellipse;whiteSpace=wrap;html=1;" vertex="1" parent="1">
          <mxGeometry x="395" y="440" width="60" height="30" as="geometry" />
        </mxCell>
        <mxCell id="jki9zwqW6rv8HR_Bi_is-29" value="&lt;font style=&quot;font-size: 10px&quot;&gt;tipo&lt;/font&gt;" style="ellipse;whiteSpace=wrap;html=1;" vertex="1" parent="1">
          <mxGeometry x="440" y="400" width="60" height="30" as="geometry" />
        </mxCell>
      </root>
    </mxGraphModel>
  </diagram>
</mxfile>
